<svg width="12" height="8" viewBox="0 0 12 8" fill="none" xmlns="http://www.w3.org/2000/svg">
<path d="M1.15116 1.25892C1.23597 1.17394 1.3367 1.10652 1.44759 1.06052C1.55849 1.01452 1.67736 0.990843 1.79742 0.990843C1.91747 0.990843 2.03635 1.01452 2.14724 1.06052C2.25813 1.10652 2.35886 1.17394 2.44367 1.25892L6.00033 4.80642L9.557 1.24975C9.64187 1.16488 9.74262 1.09756 9.8535 1.05163C9.96439 1.0057 10.0832 0.982064 10.2033 0.982064C10.3233 0.982064 10.4421 1.0057 10.553 1.05163C10.6639 1.09756 10.7646 1.16488 10.8495 1.24975C10.9344 1.33462 11.0017 1.43537 11.0476 1.54625C11.0935 1.65713 11.1172 1.77598 11.1172 1.896C11.1172 2.01602 11.0935 2.13486 11.0476 2.24575C11.0017 2.35663 10.9344 2.45738 10.8495 2.54225L6.642 6.74975C6.5572 6.83473 6.45647 6.90215 6.34557 6.94815C6.23468 6.99414 6.11581 7.01782 5.99575 7.01782C5.8757 7.01782 5.75682 6.99414 5.64593 6.94815C5.53504 6.90215 5.4343 6.83473 5.3495 6.74975L1.142 2.54225C0.793667 2.19392 0.793665 1.61642 1.15116 1.25892Z" fill="#23211B"/>
</svg>
